<?xml version="1.0" encoding="UTF-8" standalone="no"?>
<!DOCTYPE svg PUBLIC "-//W3C//DTD SVG 1.1//EN"
 "http://www.w3.org/Graphics/SVG/1.1/DTD/svg11.dtd">
<!-- Generated by graphviz version 2.43.0 (0)
 -->
<!-- Title: G Pages: 1 -->
<svg width="1043pt" height="1060pt"
 viewBox="0.00 0.00 1043.32 1060.26" xmlns="http://www.w3.org/2000/svg" xmlns:xlink="http://www.w3.org/1999/xlink">
<g id="graph0" class="graph" transform="scale(1 1) rotate(0) translate(4 1056.26)">
<title>G</title>
<polygon fill="#f9f9f9" stroke="transparent" points="-4,4 -4,-1056.26 1039.32,-1056.26 1039.32,4 -4,4"/>
<!-- main -->
<g id="node1" class="node">
<title>main</title>
<ellipse fill="#dbe5f1" stroke="#5b9bd5" cx="32.5" cy="-727" rx="32.49" ry="18"/>
<text text-anchor="middle" x="32.5" y="-723.3" font-family="Verdana" font-size="14.00" fill="#1f4e79">main</text>
</g>
<!-- elftool -->
<g id="node2" class="node">
<title>elftool</title>
<ellipse fill="#dbe5f1" stroke="#5b9bd5" cx="139.34" cy="-677" rx="38.19" ry="18"/>
<text text-anchor="middle" x="139.34" y="-673.3" font-family="Verdana" font-size="14.00" fill="#1f4e79">elftool</text>
</g>
<!-- main&#45;&gt;elftool -->
<g id="edge64" class="edge">
<title>main&#45;&gt;elftool</title>
<path fill="none" stroke="#999999" d="M57.55,-715.53C70.84,-709.19 87.61,-701.19 102.43,-694.13"/>
<polygon fill="#999999" stroke="#999999" points="104.3,-697.11 111.82,-689.65 101.29,-690.79 104.3,-697.11"/>
</g>
<!-- elftool_getopt -->
<g id="node37" class="node">
<title>elftool_getopt</title>
<ellipse fill="#dbe5f1" stroke="#5b9bd5" cx="753.65" cy="-780" rx="70.39" ry="18"/>
<text text-anchor="middle" x="753.65" y="-776.3" font-family="Verdana" font-size="14.00" fill="#1f4e79">elftool_getopt</text>
</g>
<!-- main&#45;&gt;elftool_getopt -->
<g id="edge69" class="edge">
<title>main&#45;&gt;elftool_getopt</title>
<path fill="none" stroke="#999999" d="M64.62,-729.84C129.62,-735.73 284.59,-749.49 414.77,-759 503.84,-765.5 606.21,-771.69 674.71,-775.64"/>
<polygon fill="#999999" stroke="#999999" points="674.8,-779.15 684.99,-776.23 675.2,-772.16 674.8,-779.15"/>
</g>
<!-- elftool_bin_clean -->
<g id="node3" class="node">
<title>elftool_bin_clean</title>
<ellipse fill="#dbe5f1" stroke="#5b9bd5" cx="296.23" cy="-677" rx="82.59" ry="18"/>
<text text-anchor="middle" x="296.23" y="-673.3" font-family="Verdana" font-size="14.00" fill="#1f4e79">elftool_bin_clean</text>
</g>
<!-- elftool&#45;&gt;elftool_bin_clean -->
<g id="edge2" class="edge">
<title>elftool&#45;&gt;elftool_bin_clean</title>
<path fill="none" stroke="#999999" d="M177.84,-677C185.77,-677 194.48,-677 203.45,-677"/>
<polygon fill="#999999" stroke="#999999" points="203.67,-680.5 213.67,-677 203.67,-673.5 203.67,-680.5"/>
</g>
<!-- elftool_injection -->
<g id="node5" class="node">
<title>elftool_injection</title>
<ellipse fill="#dbe5f1" stroke="#5b9bd5" cx="296.23" cy="-539" rx="79.09" ry="18"/>
<text text-anchor="middle" x="296.23" y="-535.3" font-family="Verdana" font-size="14.00" fill="#1f4e79">elftool_injection</text>
</g>
<!-- elftool&#45;&gt;elftool_injection -->
<g id="edge3" class="edge">
<title>elftool&#45;&gt;elftool_injection</title>
<path fill="none" stroke="#999999" d="M147.53,-659.33C158.33,-634.89 181.04,-590.99 213.69,-566 218.74,-562.13 224.37,-558.81 230.25,-555.95"/>
<polygon fill="#999999" stroke="#999999" points="231.89,-559.05 239.64,-551.82 229.08,-552.64 231.89,-559.05"/>
</g>
<!-- elftool_dump -->
<g id="node6" class="node">
<title>elftool_dump</title>
<ellipse fill="#dbe5f1" stroke="#5b9bd5" cx="296.23" cy="-888" rx="66.89" ry="18"/>
<text text-anchor="middle" x="296.23" y="-884.3" font-family="Verdana" font-size="14.00" fill="#1f4e79">elftool_dump</text>
</g>
<!-- elftool&#45;&gt;elftool_dump -->
<g id="edge21" class="edge">
<title>elftool&#45;&gt;elftool_dump</title>
<path fill="none" stroke="#999999" d="M152.75,-693.91C179.74,-730.67 243.91,-818.09 276.11,-861.95"/>
<polygon fill="#999999" stroke="#999999" points="273.36,-864.13 282.1,-870.12 279.01,-859.99 273.36,-864.13"/>
</g>
<!-- __printf_chk -->
<g id="node16" class="node">
<title>__printf_chk</title>
<ellipse fill="#dbe5f1" stroke="#5b9bd5" cx="970.98" cy="-972" rx="61.99" ry="18"/>
<text text-anchor="middle" x="970.98" y="-968.3" font-family="Verdana" font-size="14.00" fill="#1f4e79">__printf_chk</text>
</g>
<!-- elftool&#45;&gt;__printf_chk -->
<g id="edge63" class="edge">
<title>elftool&#45;&gt;__printf_chk</title>
<path fill="none" stroke="#999999" d="M141.4,-695.26C144.78,-738.23 158.59,-847.24 213.69,-915 278.09,-994.2 315.92,-1000.53 414.77,-1026 611.18,-1076.61 671.82,-1045.13 870.64,-1005 888.51,-1001.39 907.62,-995.55 924.27,-989.77"/>
<polygon fill="#999999" stroke="#999999" points="925.51,-993.04 933.76,-986.39 923.16,-986.45 925.51,-993.04"/>
</g>
<!-- elftool_parse -->
<g id="node19" class="node">
<title>elftool_parse</title>
<ellipse fill="#dbe5f1" stroke="#5b9bd5" cx="296.23" cy="-593" rx="65.79" ry="18"/>
<text text-anchor="middle" x="296.23" y="-589.3" font-family="Verdana" font-size="14.00" fill="#1f4e79">elftool_parse</text>
</g>
<!-- elftool&#45;&gt;elftool_parse -->
<g id="edge57" class="edge">
<title>elftool&#45;&gt;elftool_parse</title>
<path fill="none" stroke="#999999" d="M165.23,-663.5C189.92,-650.11 228.11,-629.4 256.72,-613.89"/>
<polygon fill="#999999" stroke="#999999" points="258.52,-616.89 265.64,-609.05 255.18,-610.74 258.52,-616.89"/>
</g>
<!-- elftool_load -->
<g id="node33" class="node">
<title>elftool_load</title>
<ellipse fill="#dbe5f1" stroke="#5b9bd5" cx="296.23" cy="-126" rx="59.59" ry="18"/>
<text text-anchor="middle" x="296.23" y="-122.3" font-family="Verdana" font-size="14.00" fill="#1f4e79">elftool_load</text>
</g>
<!-- elftool&#45;&gt;elftool_load -->
<g id="edge62" class="edge">
<title>elftool&#45;&gt;elftool_load</title>
<path fill="none" stroke="#999999" d="M145.41,-658.98C168.02,-578.54 259.82,-251.95 287.38,-153.94"/>
<polygon fill="#999999" stroke="#999999" points="290.79,-154.73 290.13,-144.16 284.05,-152.84 290.79,-154.73"/>
</g>
<!-- ft_lstdel -->
<g id="node4" class="node">
<title>ft_lstdel</title>
<ellipse fill="#dbe5f1" stroke="#5b9bd5" cx="507.71" cy="-677" rx="44.39" ry="18"/>
<text text-anchor="middle" x="507.71" y="-673.3" font-family="Verdana" font-size="14.00" fill="#1f4e79">ft_lstdel</text>
</g>
<!-- elftool_bin_clean&#45;&gt;ft_lstdel -->
<g id="edge1" class="edge">
<title>elftool_bin_clean&#45;&gt;ft_lstdel</title>
<path fill="none" stroke="#999999" d="M378.82,-677C403.83,-677 430.69,-677 453.3,-677"/>
<polygon fill="#999999" stroke="#999999" points="453.37,-680.5 463.37,-677 453.37,-673.5 453.37,-680.5"/>
</g>
<!-- elftool_dump_nm -->
<g id="node7" class="node">
<title>elftool_dump_nm</title>
<ellipse fill="#dbe5f1" stroke="#5b9bd5" cx="507.71" cy="-732" rx="85.29" ry="18"/>
<text text-anchor="middle" x="507.71" y="-728.3" font-family="Verdana" font-size="14.00" fill="#1f4e79">elftool_dump_nm</text>
</g>
<!-- elftool_dump&#45;&gt;elftool_dump_nm -->
<g id="edge12" class="edge">
<title>elftool_dump&#45;&gt;elftool_dump_nm</title>
<path fill="none" stroke="#999999" d="M320.05,-871.01C357.63,-843.02 432.61,-787.18 475.22,-755.46"/>
<polygon fill="#999999" stroke="#999999" points="477.36,-758.23 483.29,-749.45 473.17,-752.61 477.36,-758.23"/>
</g>
<!-- elftool_dump_syms -->
<g id="node15" class="node">
<title>elftool_dump_syms</title>
<ellipse fill="#dbe5f1" stroke="#5b9bd5" cx="507.71" cy="-942" rx="92.88" ry="18"/>
<text text-anchor="middle" x="507.71" y="-938.3" font-family="Verdana" font-size="14.00" fill="#1f4e79">elftool_dump_syms</text>
</g>
<!-- elftool_dump&#45;&gt;elftool_dump_syms -->
<g id="edge15" class="edge">
<title>elftool_dump&#45;&gt;elftool_dump_syms</title>
<path fill="none" stroke="#999999" d="M345.29,-900.39C373.74,-907.72 410.17,-917.11 441.22,-925.12"/>
<polygon fill="#999999" stroke="#999999" points="440.54,-928.56 451.1,-927.66 442.29,-921.78 440.54,-928.56"/>
</g>
<!-- elftool_dump_shdr -->
<g id="node17" class="node">
<title>elftool_dump_shdr</title>
<ellipse fill="#dbe5f1" stroke="#5b9bd5" cx="507.71" cy="-888" rx="90.18" ry="18"/>
<text text-anchor="middle" x="507.71" y="-884.3" font-family="Verdana" font-size="14.00" fill="#1f4e79">elftool_dump_shdr</text>
</g>
<!-- elftool_dump&#45;&gt;elftool_dump_shdr -->
<g id="edge18" class="edge">
<title>elftool_dump&#45;&gt;elftool_dump_shdr</title>
<path fill="none" stroke="#999999" d="M363.22,-888C377.16,-888 392.16,-888 407.02,-888"/>
<polygon fill="#999999" stroke="#999999" points="407.28,-891.5 417.28,-888 407.28,-884.5 407.28,-891.5"/>
</g>
<!-- elftool_dump_ehdr -->
<g id="node18" class="node">
<title>elftool_dump_ehdr</title>
<ellipse fill="#dbe5f1" stroke="#5b9bd5" cx="507.71" cy="-999" rx="90.98" ry="18"/>
<text text-anchor="middle" x="507.71" y="-995.3" font-family="Verdana" font-size="14.00" fill="#1f4e79">elftool_dump_ehdr</text>
</g>
<!-- elftool_dump&#45;&gt;elftool_dump_ehdr -->
<g id="edge20" class="edge">
<title>elftool_dump&#45;&gt;elftool_dump_ehdr</title>
<path fill="none" stroke="#999999" d="M318.16,-905.21C340.81,-923.15 378.56,-951.09 414.77,-969 423.8,-973.47 433.65,-977.49 443.44,-981.03"/>
<polygon fill="#999999" stroke="#999999" points="442.57,-984.43 453.17,-984.4 444.87,-977.82 442.57,-984.43"/>
</g>
<!-- __fprintf_chk -->
<g id="node8" class="node">
<title>__fprintf_chk</title>
<ellipse fill="#dbe5f1" stroke="#5b9bd5" cx="970.98" cy="-429" rx="64.19" ry="18"/>
<text text-anchor="middle" x="970.98" y="-425.3" font-family="Verdana" font-size="14.00" fill="#1f4e79">__fprintf_chk</text>
</g>
<!-- elftool_dump_nm&#45;&gt;__fprintf_chk -->
<g id="edge4" class="edge">
<title>elftool_dump_nm&#45;&gt;__fprintf_chk</title>
<path fill="none" stroke="#999999" d="M577.1,-721.24C586.1,-717.15 594.37,-711.58 600.66,-704 647.59,-647.37 581.89,-424.1 636.66,-375 721.08,-299.31 868.19,-368.81 935.08,-407.32"/>
<polygon fill="#999999" stroke="#999999" points="933.57,-410.49 943.97,-412.53 937.11,-404.45 933.57,-410.49"/>
</g>
<!-- ft_lstiter -->
<g id="node9" class="node">
<title>ft_lstiter</title>
<ellipse fill="#dbe5f1" stroke="#5b9bd5" cx="753.65" cy="-888" rx="46.29" ry="18"/>
<text text-anchor="middle" x="753.65" y="-884.3" font-family="Verdana" font-size="14.00" fill="#1f4e79">ft_lstiter</text>
</g>
<!-- elftool_dump_nm&#45;&gt;ft_lstiter -->
<g id="edge5" class="edge">
<title>elftool_dump_nm&#45;&gt;ft_lstiter</title>
<path fill="none" stroke="#999999" d="M521.36,-750.16C542.05,-778.45 585.98,-832.71 636.66,-861 655.5,-871.52 678.26,-877.95 698.6,-881.87"/>
<polygon fill="#999999" stroke="#999999" points="698.22,-885.36 708.68,-883.66 699.44,-878.47 698.22,-885.36"/>
</g>
<!-- sort_symbols64 -->
<g id="node10" class="node">
<title>sort_symbols64</title>
<ellipse fill="#dbe5f1" stroke="#5b9bd5" cx="753.65" cy="-726" rx="77.19" ry="18"/>
<text text-anchor="middle" x="753.65" y="-722.3" font-family="Verdana" font-size="14.00" fill="#1f4e79">sort_symbols64</text>
</g>
<!-- elftool_dump_nm&#45;&gt;sort_symbols64 -->
<g id="edge11" class="edge">
<title>elftool_dump_nm&#45;&gt;sort_symbols64</title>
<path fill="none" stroke="#999999" d="M592.32,-729.94C616.21,-729.36 642.3,-728.71 666.35,-728.12"/>
<polygon fill="#999999" stroke="#999999" points="666.61,-731.62 676.52,-727.87 666.44,-724.62 666.61,-731.62"/>
</g>
<!-- sort_symbols64&#45;&gt;__fprintf_chk -->
<g id="edge7" class="edge">
<title>sort_symbols64&#45;&gt;__fprintf_chk</title>
<path fill="none" stroke="#999999" d="M828.74,-721.53C844.28,-717.35 859.36,-710.39 870.64,-699 922.53,-646.59 879.65,-605.64 906.64,-537 918.26,-507.44 937.25,-476.44 951.41,-455.27"/>
<polygon fill="#999999" stroke="#999999" points="954.42,-457.07 957.15,-446.83 948.63,-453.13 954.42,-457.07"/>
</g>
<!-- ft_lstdelone -->
<g id="node11" class="node">
<title>ft_lstdelone</title>
<ellipse fill="#dbe5f1" stroke="#5b9bd5" cx="970.98" cy="-699" rx="61.19" ry="18"/>
<text text-anchor="middle" x="970.98" y="-695.3" font-family="Verdana" font-size="14.00" fill="#1f4e79">ft_lstdelone</text>
</g>
<!-- sort_symbols64&#45;&gt;ft_lstdelone -->
<g id="edge6" class="edge">
<title>sort_symbols64&#45;&gt;ft_lstdelone</title>
<path fill="none" stroke="#999999" d="M822.19,-717.53C848.43,-714.24 878.38,-710.49 904.43,-707.22"/>
<polygon fill="#999999" stroke="#999999" points="905.09,-710.66 914.58,-705.95 904.22,-703.72 905.09,-710.66"/>
</g>
<!-- ft_lstpush -->
<g id="node12" class="node">
<title>ft_lstpush</title>
<ellipse fill="#dbe5f1" stroke="#5b9bd5" cx="970.98" cy="-564" rx="52.79" ry="18"/>
<text text-anchor="middle" x="970.98" y="-560.3" font-family="Verdana" font-size="14.00" fill="#1f4e79">ft_lstpush</text>
</g>
<!-- sort_symbols64&#45;&gt;ft_lstpush -->
<g id="edge8" class="edge">
<title>sort_symbols64&#45;&gt;ft_lstpush</title>
<path fill="none" stroke="#999999" d="M827.9,-720.66C843.49,-716.52 858.79,-709.79 870.64,-699 908.04,-664.93 872.34,-628.2 906.64,-591 910.63,-586.66 915.44,-583 920.6,-579.9"/>
<polygon fill="#999999" stroke="#999999" points="922.3,-582.96 929.53,-575.22 919.05,-576.76 922.3,-582.96"/>
</g>
<!-- ft_lstnew -->
<g id="node13" class="node">
<title>ft_lstnew</title>
<ellipse fill="#dbe5f1" stroke="#5b9bd5" cx="970.98" cy="-618" rx="49.29" ry="18"/>
<text text-anchor="middle" x="970.98" y="-614.3" font-family="Verdana" font-size="14.00" fill="#1f4e79">ft_lstnew</text>
</g>
<!-- sort_symbols64&#45;&gt;ft_lstnew -->
<g id="edge9" class="edge">
<title>sort_symbols64&#45;&gt;ft_lstnew</title>
<path fill="none" stroke="#999999" d="M819.35,-716.39C836.56,-712.39 854.77,-706.79 870.64,-699 878.69,-695.05 916.04,-663.91 942.57,-641.42"/>
<polygon fill="#999999" stroke="#999999" points="945.05,-643.9 950.41,-634.76 940.52,-638.57 945.05,-643.9"/>
</g>
<!-- strcmp -->
<g id="node14" class="node">
<title>strcmp</title>
<ellipse fill="#dbe5f1" stroke="#5b9bd5" cx="970.98" cy="-753" rx="40.09" ry="18"/>
<text text-anchor="middle" x="970.98" y="-749.3" font-family="Verdana" font-size="14.00" fill="#1f4e79">strcmp</text>
</g>
<!-- sort_symbols64&#45;&gt;strcmp -->
<g id="edge10" class="edge">
<title>sort_symbols64&#45;&gt;strcmp</title>
<path fill="none" stroke="#999999" d="M822.19,-734.47C854.52,-738.52 892.47,-743.28 921.83,-746.96"/>
<polygon fill="#999999" stroke="#999999" points="921.47,-750.44 931.83,-748.22 922.34,-743.5 921.47,-750.44"/>
</g>
<!-- elftool_dump_syms&#45;&gt;ft_lstiter -->
<g id="edge14" class="edge">
<title>elftool_dump_syms&#45;&gt;ft_lstiter</title>
<path fill="none" stroke="#999999" d="M569.64,-928.51C610.83,-919.39 664.54,-907.5 703.11,-898.97"/>
<polygon fill="#999999" stroke="#999999" points="704.05,-902.34 713.06,-896.76 702.54,-895.51 704.05,-902.34"/>
</g>
<!-- elftool_dump_syms&#45;&gt;__printf_chk -->
<g id="edge13" class="edge">
<title>elftool_dump_syms&#45;&gt;__printf_chk</title>
<path fill="none" stroke="#999999" d="M596.02,-947.68C684.31,-953.42 819.03,-962.18 900.38,-967.47"/>
<polygon fill="#999999" stroke="#999999" points="900.31,-970.98 910.52,-968.13 900.77,-963.99 900.31,-970.98"/>
</g>
<!-- elftool_dump_shdr&#45;&gt;ft_lstiter -->
<g id="edge17" class="edge">
<title>elftool_dump_shdr&#45;&gt;ft_lstiter</title>
<path fill="none" stroke="#999999" d="M598.16,-888C631.37,-888 668.04,-888 697.32,-888"/>
<polygon fill="#999999" stroke="#999999" points="697.35,-891.5 707.35,-888 697.35,-884.5 697.35,-891.5"/>
</g>
<!-- elftool_dump_shdr&#45;&gt;__printf_chk -->
<g id="edge16" class="edge">
<title>elftool_dump_shdr&#45;&gt;__printf_chk</title>
<path fill="none" stroke="#999999" d="M568.11,-901.41C589.64,-906.04 614.19,-911.05 636.66,-915 740.09,-933.19 767.48,-928.31 870.64,-948 885.08,-950.76 900.58,-954.24 914.95,-957.7"/>
<polygon fill="#999999" stroke="#999999" points="914.14,-961.1 924.68,-960.08 915.8,-954.3 914.14,-961.1"/>
</g>
<!-- elftool_dump_ehdr&#45;&gt;__printf_chk -->
<g id="edge19" class="edge">
<title>elftool_dump_ehdr&#45;&gt;__printf_chk</title>
<path fill="none" stroke="#999999" d="M598.86,-998.36C672.18,-997.22 778.25,-994.15 870.64,-986 882.18,-984.98 894.43,-983.55 906.24,-981.98"/>
<polygon fill="#999999" stroke="#999999" points="907.04,-985.41 916.48,-980.58 906.09,-978.47 907.04,-985.41"/>
</g>
<!-- elftool_parse_syms -->
<g id="node20" class="node">
<title>elftool_parse_syms</title>
<ellipse fill="#dbe5f1" stroke="#5b9bd5" cx="507.71" cy="-622" rx="91.78" ry="18"/>
<text text-anchor="middle" x="507.71" y="-618.3" font-family="Verdana" font-size="14.00" fill="#1f4e79">elftool_parse_syms</text>
</g>
<!-- elftool_parse&#45;&gt;elftool_parse_syms -->
<g id="edge32" class="edge">
<title>elftool_parse&#45;&gt;elftool_parse_syms</title>
<path fill="none" stroke="#999999" d="M355.31,-601.04C376.08,-603.92 399.94,-607.22 422.48,-610.34"/>
<polygon fill="#999999" stroke="#999999" points="422,-613.81 432.39,-611.71 422.96,-606.87 422,-613.81"/>
</g>
<!-- elftool_parse_shdr -->
<g id="node24" class="node">
<title>elftool_parse_shdr</title>
<ellipse fill="#dbe5f1" stroke="#5b9bd5" cx="507.71" cy="-564" rx="89.08" ry="18"/>
<text text-anchor="middle" x="507.71" y="-560.3" font-family="Verdana" font-size="14.00" fill="#1f4e79">elftool_parse_shdr</text>
</g>
<!-- elftool_parse&#45;&gt;elftool_parse_shdr -->
<g id="edge41" class="edge">
<title>elftool_parse&#45;&gt;elftool_parse_shdr</title>
<path fill="none" stroke="#999999" d="M355.31,-584.96C376.51,-582.03 400.91,-578.65 423.85,-575.47"/>
<polygon fill="#999999" stroke="#999999" points="424.5,-578.91 433.93,-574.08 423.54,-571.98 424.5,-578.91"/>
</g>
<!-- elftool_parse_phdr -->
<g id="node27" class="node">
<title>elftool_parse_phdr</title>
<ellipse fill="#dbe5f1" stroke="#5b9bd5" cx="507.71" cy="-456" rx="90.18" ry="18"/>
<text text-anchor="middle" x="507.71" y="-452.3" font-family="Verdana" font-size="14.00" fill="#1f4e79">elftool_parse_phdr</text>
</g>
<!-- elftool_parse&#45;&gt;elftool_parse_phdr -->
<g id="edge50" class="edge">
<title>elftool_parse&#45;&gt;elftool_parse_phdr</title>
<path fill="none" stroke="#999999" d="M344.71,-580.74C356.24,-576.84 368.26,-571.95 378.77,-566 384.39,-562.82 442.87,-511.92 478.79,-480.49"/>
<polygon fill="#999999" stroke="#999999" points="481.3,-482.94 486.52,-473.72 476.69,-477.67 481.3,-482.94"/>
</g>
<!-- elftool_parse_ehdr -->
<g id="node30" class="node">
<title>elftool_parse_ehdr</title>
<ellipse fill="#dbe5f1" stroke="#5b9bd5" cx="507.71" cy="-295" rx="90.18" ry="18"/>
<text text-anchor="middle" x="507.71" y="-291.3" font-family="Verdana" font-size="14.00" fill="#1f4e79">elftool_parse_ehdr</text>
</g>
<!-- elftool_parse&#45;&gt;elftool_parse_ehdr -->
<g id="edge56" class="edge">
<title>elftool_parse&#45;&gt;elftool_parse_ehdr</title>
<path fill="none" stroke="#999999" d="M351.66,-583.34C361.76,-579.39 371.42,-573.83 378.77,-566 421.87,-520.11 388.58,-486.25 414.77,-429 433.42,-388.26 464.31,-346.49 485.08,-320.66"/>
<polygon fill="#999999" stroke="#999999" points="487.84,-322.81 491.44,-312.85 482.41,-318.39 487.84,-322.81"/>
</g>
<!-- elftool_parse_syms64 -->
<g id="node21" class="node">
<title>elftool_parse_syms64</title>
<ellipse fill="#dbe5f1" stroke="#5b9bd5" cx="753.65" cy="-618" rx="102.88" ry="18"/>
<text text-anchor="middle" x="753.65" y="-614.3" font-family="Verdana" font-size="14.00" fill="#1f4e79">elftool_parse_syms64</text>
</g>
<!-- elftool_parse_syms&#45;&gt;elftool_parse_syms64 -->
<g id="edge25" class="edge">
<title>elftool_parse_syms&#45;&gt;elftool_parse_syms64</title>
<path fill="none" stroke="#999999" d="M599.2,-620.52C612.84,-620.29 627.04,-620.06 641.06,-619.83"/>
<polygon fill="#999999" stroke="#999999" points="641.28,-623.33 651.22,-619.66 641.16,-616.33 641.28,-623.33"/>
</g>
<!-- elftool_parse_syms32 -->
<g id="node22" class="node">
<title>elftool_parse_syms32</title>
<ellipse fill="#dbe5f1" stroke="#5b9bd5" cx="753.65" cy="-672" rx="102.88" ry="18"/>
<text text-anchor="middle" x="753.65" y="-668.3" font-family="Verdana" font-size="14.00" fill="#1f4e79">elftool_parse_syms32</text>
</g>
<!-- elftool_parse_syms&#45;&gt;elftool_parse_syms32 -->
<g id="edge29" class="edge">
<title>elftool_parse_syms&#45;&gt;elftool_parse_syms32</title>
<path fill="none" stroke="#999999" d="M571.85,-634.94C603.58,-641.44 642.29,-649.38 675.74,-656.24"/>
<polygon fill="#999999" stroke="#999999" points="675.44,-659.75 685.94,-658.33 676.84,-652.89 675.44,-659.75"/>
</g>
<!-- elftool_get_sym_sections -->
<g id="node23" class="node">
<title>elftool_get_sym_sections</title>
<ellipse fill="#dbe5f1" stroke="#5b9bd5" cx="753.65" cy="-834" rx="116.98" ry="18"/>
<text text-anchor="middle" x="753.65" y="-830.3" font-family="Verdana" font-size="14.00" fill="#1f4e79">elftool_get_sym_sections</text>
</g>
<!-- elftool_parse_syms&#45;&gt;elftool_get_sym_sections -->
<g id="edge31" class="edge">
<title>elftool_parse_syms&#45;&gt;elftool_get_sym_sections</title>
<path fill="none" stroke="#999999" d="M577.26,-633.84C586.02,-637.8 594.17,-643.04 600.66,-650 649.47,-702.37 586.12,-756.3 636.66,-807 641,-811.36 645.91,-815.07 651.19,-818.23"/>
<polygon fill="#999999" stroke="#999999" points="649.9,-821.51 660.38,-823.03 653.14,-815.3 649.9,-821.51"/>
</g>
<!-- elftool_parse_syms64&#45;&gt;__fprintf_chk -->
<g id="edge23" class="edge">
<title>elftool_parse_syms64&#45;&gt;__fprintf_chk</title>
<path fill="none" stroke="#999999" d="M837.11,-607.41C849.05,-603.5 860.66,-598.19 870.64,-591 876.96,-586.44 928.08,-500.33 954.42,-455.56"/>
<polygon fill="#999999" stroke="#999999" points="957.44,-457.33 959.49,-446.93 951.4,-453.78 957.44,-457.33"/>
</g>
<!-- elftool_parse_syms64&#45;&gt;ft_lstpush -->
<g id="edge22" class="edge">
<title>elftool_parse_syms64&#45;&gt;ft_lstpush</title>
<path fill="none" stroke="#999999" d="M817.35,-603.85C834.65,-599.82 853.39,-595.35 870.64,-591 886.56,-586.98 903.85,-582.37 919.47,-578.11"/>
<polygon fill="#999999" stroke="#999999" points="920.75,-581.39 929.47,-575.37 918.9,-574.64 920.75,-581.39"/>
</g>
<!-- elftool_parse_syms64&#45;&gt;ft_lstnew -->
<g id="edge24" class="edge">
<title>elftool_parse_syms64&#45;&gt;ft_lstnew</title>
<path fill="none" stroke="#999999" d="M856.64,-618C875.36,-618 894.32,-618 911.23,-618"/>
<polygon fill="#999999" stroke="#999999" points="911.47,-621.5 921.47,-618 911.47,-614.5 911.47,-621.5"/>
</g>
<!-- elftool_parse_syms32&#45;&gt;__fprintf_chk -->
<g id="edge27" class="edge">
<title>elftool_parse_syms32&#45;&gt;__fprintf_chk</title>
<path fill="none" stroke="#999999" d="M841.03,-662.48C851.9,-658.37 862.15,-652.73 870.64,-645 908.04,-610.93 885.72,-583.07 906.64,-537 919.84,-507.9 938.77,-476.61 952.49,-455.24"/>
<polygon fill="#999999" stroke="#999999" points="955.51,-457.02 958.02,-446.72 949.64,-453.2 955.51,-457.02"/>
</g>
<!-- elftool_parse_syms32&#45;&gt;ft_lstpush -->
<g id="edge26" class="edge">
<title>elftool_parse_syms32&#45;&gt;ft_lstpush</title>
<path fill="none" stroke="#999999" d="M836.27,-661.27C848.45,-657.39 860.35,-652.12 870.64,-645 894.35,-628.58 884.44,-609.42 906.64,-591 911.46,-586.99 916.98,-583.49 922.69,-580.46"/>
<polygon fill="#999999" stroke="#999999" points="924.28,-583.58 931.76,-576.08 921.23,-577.28 924.28,-583.58"/>
</g>
<!-- elftool_parse_syms32&#45;&gt;ft_lstnew -->
<g id="edge28" class="edge">
<title>elftool_parse_syms32&#45;&gt;ft_lstnew</title>
<path fill="none" stroke="#999999" d="M817.35,-657.85C834.65,-653.82 853.39,-649.35 870.64,-645 887.28,-640.8 905.43,-635.95 921.6,-631.53"/>
<polygon fill="#999999" stroke="#999999" points="922.66,-634.87 931.38,-628.84 920.81,-628.12 922.66,-634.87"/>
</g>
<!-- elftool_get_sym_sections&#45;&gt;__printf_chk -->
<g id="edge30" class="edge">
<title>elftool_get_sym_sections&#45;&gt;__printf_chk</title>
<path fill="none" stroke="#999999" d="M837.26,-846.6C848.92,-850.24 860.41,-854.94 870.64,-861 906.27,-882.1 936.19,-920.23 953.61,-945.83"/>
<polygon fill="#999999" stroke="#999999" points="950.79,-947.92 959.23,-954.32 956.62,-944.05 950.79,-947.92"/>
</g>
<!-- elftool_parse_shdr_64 -->
<g id="node25" class="node">
<title>elftool_parse_shdr_64</title>
<ellipse fill="#dbe5f1" stroke="#5b9bd5" cx="753.65" cy="-510" rx="103.98" ry="18"/>
<text text-anchor="middle" x="753.65" y="-506.3" font-family="Verdana" font-size="14.00" fill="#1f4e79">elftool_parse_shdr_64</text>
</g>
<!-- elftool_parse_shdr&#45;&gt;elftool_parse_shdr_64 -->
<g id="edge36" class="edge">
<title>elftool_parse_shdr&#45;&gt;elftool_parse_shdr_64</title>
<path fill="none" stroke="#999999" d="M568.39,-550.79C601.78,-543.4 643.69,-534.12 679.09,-526.28"/>
<polygon fill="#999999" stroke="#999999" points="679.89,-529.69 688.9,-524.11 678.38,-522.86 679.89,-529.69"/>
</g>
<!-- elftool_parse_shdr_32 -->
<g id="node26" class="node">
<title>elftool_parse_shdr_32</title>
<ellipse fill="#dbe5f1" stroke="#5b9bd5" cx="753.65" cy="-564" rx="103.98" ry="18"/>
<text text-anchor="middle" x="753.65" y="-560.3" font-family="Verdana" font-size="14.00" fill="#1f4e79">elftool_parse_shdr_32</text>
</g>
<!-- elftool_parse_shdr&#45;&gt;elftool_parse_shdr_32 -->
<g id="edge40" class="edge">
<title>elftool_parse_shdr&#45;&gt;elftool_parse_shdr_32</title>
<path fill="none" stroke="#999999" d="M596.78,-564C610.51,-564 624.86,-564 639.05,-564"/>
<polygon fill="#999999" stroke="#999999" points="639.35,-567.5 649.35,-564 639.35,-560.5 639.35,-567.5"/>
</g>
<!-- elftool_parse_shdr_64&#45;&gt;__fprintf_chk -->
<g id="edge33" class="edge">
<title>elftool_parse_shdr_64&#45;&gt;__fprintf_chk</title>
<path fill="none" stroke="#999999" d="M824.87,-496.86C840.18,-493.11 856.14,-488.51 870.64,-483 893.19,-474.43 916.98,-461.64 935.62,-450.66"/>
<polygon fill="#999999" stroke="#999999" points="937.56,-453.59 944.34,-445.44 933.96,-447.58 937.56,-453.59"/>
</g>
<!-- elftool_parse_shdr_64&#45;&gt;ft_lstpush -->
<g id="edge34" class="edge">
<title>elftool_parse_shdr_64&#45;&gt;ft_lstpush</title>
<path fill="none" stroke="#999999" d="M817.65,-524.22C834.87,-528.23 853.49,-532.68 870.64,-537 886.56,-541.02 903.85,-545.63 919.47,-549.89"/>
<polygon fill="#999999" stroke="#999999" points="918.9,-553.36 929.47,-552.63 920.75,-546.61 918.9,-553.36"/>
</g>
<!-- elftool_parse_shdr_64&#45;&gt;ft_lstnew -->
<g id="edge35" class="edge">
<title>elftool_parse_shdr_64&#45;&gt;ft_lstnew</title>
<path fill="none" stroke="#999999" d="M836.88,-520.92C848.84,-524.79 860.52,-530 870.64,-537 894.35,-553.42 884.44,-572.58 906.64,-591 911.65,-595.16 917.39,-598.77 923.33,-601.88"/>
<polygon fill="#999999" stroke="#999999" points="922.22,-605.23 932.75,-606.36 925.22,-598.9 922.22,-605.23"/>
</g>
<!-- elftool_parse_shdr_32&#45;&gt;__fprintf_chk -->
<g id="edge37" class="edge">
<title>elftool_parse_shdr_32&#45;&gt;__fprintf_chk</title>
<path fill="none" stroke="#999999" d="M833.53,-552.38C846.44,-548.61 859.29,-543.61 870.64,-537 905.48,-516.68 935.23,-480.18 952.85,-455.29"/>
<polygon fill="#999999" stroke="#999999" points="955.76,-457.23 958.57,-447.02 950,-453.26 955.76,-457.23"/>
</g>
<!-- elftool_parse_shdr_32&#45;&gt;ft_lstpush -->
<g id="edge38" class="edge">
<title>elftool_parse_shdr_32&#45;&gt;ft_lstpush</title>
<path fill="none" stroke="#999999" d="M857.9,-564C875.08,-564 892.4,-564 908.13,-564"/>
<polygon fill="#999999" stroke="#999999" points="908.21,-567.5 918.21,-564 908.21,-560.5 908.21,-567.5"/>
</g>
<!-- elftool_parse_shdr_32&#45;&gt;ft_lstnew -->
<g id="edge39" class="edge">
<title>elftool_parse_shdr_32&#45;&gt;ft_lstnew</title>
<path fill="none" stroke="#999999" d="M817.65,-578.22C834.87,-582.23 853.49,-586.68 870.64,-591 887.28,-595.2 905.43,-600.05 921.6,-604.47"/>
<polygon fill="#999999" stroke="#999999" points="920.81,-607.88 931.38,-607.16 922.66,-601.13 920.81,-607.88"/>
</g>
<!-- elftool_parse_phdr_64 -->
<g id="node28" class="node">
<title>elftool_parse_phdr_64</title>
<ellipse fill="#dbe5f1" stroke="#5b9bd5" cx="753.65" cy="-456" rx="104.78" ry="18"/>
<text text-anchor="middle" x="753.65" y="-452.3" font-family="Verdana" font-size="14.00" fill="#1f4e79">elftool_parse_phdr_64</text>
</g>
<!-- elftool_parse_phdr&#45;&gt;elftool_parse_phdr_64 -->
<g id="edge45" class="edge">
<title>elftool_parse_phdr&#45;&gt;elftool_parse_phdr_64</title>
<path fill="none" stroke="#999999" d="M598.16,-456C611.27,-456 624.92,-456 638.45,-456"/>
<polygon fill="#999999" stroke="#999999" points="638.75,-459.5 648.75,-456 638.75,-452.5 638.75,-459.5"/>
</g>
<!-- elftool_parse_phdr_32 -->
<g id="node29" class="node">
<title>elftool_parse_phdr_32</title>
<ellipse fill="#dbe5f1" stroke="#5b9bd5" cx="753.65" cy="-402" rx="104.78" ry="18"/>
<text text-anchor="middle" x="753.65" y="-398.3" font-family="Verdana" font-size="14.00" fill="#1f4e79">elftool_parse_phdr_32</text>
</g>
<!-- elftool_parse_phdr&#45;&gt;elftool_parse_phdr_32 -->
<g id="edge49" class="edge">
<title>elftool_parse_phdr&#45;&gt;elftool_parse_phdr_32</title>
<path fill="none" stroke="#999999" d="M569.01,-442.65C602.14,-435.32 643.51,-426.16 678.59,-418.39"/>
<polygon fill="#999999" stroke="#999999" points="679.77,-421.72 688.78,-416.14 678.26,-414.88 679.77,-421.72"/>
</g>
<!-- elftool_parse_phdr_64&#45;&gt;__fprintf_chk -->
<g id="edge43" class="edge">
<title>elftool_parse_phdr_64&#45;&gt;__fprintf_chk</title>
<path fill="none" stroke="#999999" d="M838.82,-445.45C859.71,-442.83 881.84,-440.05 901.85,-437.54"/>
<polygon fill="#999999" stroke="#999999" points="902.31,-441.01 911.8,-436.3 901.44,-434.07 902.31,-441.01"/>
</g>
<!-- elftool_parse_phdr_64&#45;&gt;ft_lstpush -->
<g id="edge42" class="edge">
<title>elftool_parse_phdr_64&#45;&gt;ft_lstpush</title>
<path fill="none" stroke="#999999" d="M830.32,-468.35C844.12,-472.07 858.11,-476.85 870.64,-483 899.48,-497.16 927.38,-521.11 946.24,-539.31"/>
<polygon fill="#999999" stroke="#999999" points="944.16,-542.17 953.74,-546.71 949.08,-537.19 944.16,-542.17"/>
</g>
<!-- elftool_parse_phdr_64&#45;&gt;ft_lstnew -->
<g id="edge44" class="edge">
<title>elftool_parse_phdr_64&#45;&gt;ft_lstnew</title>
<path fill="none" stroke="#999999" d="M841.91,-465.86C852.45,-469.93 862.38,-475.48 870.64,-483 908.04,-517.07 872.34,-553.8 906.64,-591 910.94,-595.67 916.19,-599.57 921.81,-602.81"/>
<polygon fill="#999999" stroke="#999999" points="920.35,-605.99 930.85,-607.38 923.5,-599.74 920.35,-605.99"/>
</g>
<!-- elftool_parse_phdr_32&#45;&gt;__fprintf_chk -->
<g id="edge47" class="edge">
<title>elftool_parse_phdr_32&#45;&gt;__fprintf_chk</title>
<path fill="none" stroke="#999999" d="M838.82,-412.55C859.71,-415.17 881.84,-417.95 901.85,-420.46"/>
<polygon fill="#999999" stroke="#999999" points="901.44,-423.93 911.8,-421.7 902.31,-416.99 901.44,-423.93"/>
</g>
<!-- elftool_parse_phdr_32&#45;&gt;ft_lstpush -->
<g id="edge46" class="edge">
<title>elftool_parse_phdr_32&#45;&gt;ft_lstpush</title>
<path fill="none" stroke="#999999" d="M835.99,-413.15C848.2,-416.98 860.19,-422.12 870.64,-429 911.42,-455.87 941.43,-505.53 957.26,-536.55"/>
<polygon fill="#999999" stroke="#999999" points="954.32,-538.51 961.9,-545.92 960.59,-535.4 954.32,-538.51"/>
</g>
<!-- elftool_parse_phdr_32&#45;&gt;ft_lstnew -->
<g id="edge48" class="edge">
<title>elftool_parse_phdr_32&#45;&gt;ft_lstnew</title>
<path fill="none" stroke="#999999" d="M843.24,-411.32C853.44,-415.49 862.93,-421.21 870.64,-429 922.53,-481.41 859.5,-534.27 906.64,-591 910.55,-595.71 915.44,-599.62 920.75,-602.86"/>
<polygon fill="#999999" stroke="#999999" points="919.51,-606.16 929.99,-607.69 922.76,-599.96 919.51,-606.16"/>
</g>
<!-- elftool_parse_ehdr&#45;&gt;__fprintf_chk -->
<g id="edge55" class="edge">
<title>elftool_parse_ehdr&#45;&gt;__fprintf_chk</title>
<path fill="none" stroke="#999999" d="M594.1,-300.35C685.17,-307.06 822.78,-320.39 870.64,-342 901.81,-356.08 930.39,-383.3 948.81,-403.56"/>
<polygon fill="#999999" stroke="#999999" points="946.34,-406.05 955.59,-411.21 951.58,-401.41 946.34,-406.05"/>
</g>
<!-- elftool_parse64_ehdr -->
<g id="node31" class="node">
<title>elftool_parse64_ehdr</title>
<ellipse fill="#dbe5f1" stroke="#5b9bd5" cx="753.65" cy="-272" rx="100.98" ry="18"/>
<text text-anchor="middle" x="753.65" y="-268.3" font-family="Verdana" font-size="14.00" fill="#1f4e79">elftool_parse64_ehdr</text>
</g>
<!-- elftool_parse_ehdr&#45;&gt;elftool_parse64_ehdr -->
<g id="edge52" class="edge">
<title>elftool_parse_ehdr&#45;&gt;elftool_parse64_ehdr</title>
<path fill="none" stroke="#999999" d="M589.6,-287.37C610.19,-285.43 632.56,-283.32 653.93,-281.31"/>
<polygon fill="#999999" stroke="#999999" points="654.37,-284.78 664,-280.36 653.71,-277.81 654.37,-284.78"/>
</g>
<!-- elftool_parse32_ehdr -->
<g id="node32" class="node">
<title>elftool_parse32_ehdr</title>
<ellipse fill="#dbe5f1" stroke="#5b9bd5" cx="753.65" cy="-218" rx="100.98" ry="18"/>
<text text-anchor="middle" x="753.65" y="-214.3" font-family="Verdana" font-size="14.00" fill="#1f4e79">elftool_parse32_ehdr</text>
</g>
<!-- elftool_parse_ehdr&#45;&gt;elftool_parse32_ehdr -->
<g id="edge54" class="edge">
<title>elftool_parse_ehdr&#45;&gt;elftool_parse32_ehdr</title>
<path fill="none" stroke="#999999" d="M546.28,-278.67C571.51,-268.12 605.68,-254.6 636.66,-245 649.61,-240.98 663.54,-237.25 677.09,-233.93"/>
<polygon fill="#999999" stroke="#999999" points="677.97,-237.32 686.87,-231.58 676.33,-230.51 677.97,-237.32"/>
</g>
<!-- elftool_parse64_ehdr&#45;&gt;__fprintf_chk -->
<g id="edge51" class="edge">
<title>elftool_parse64_ehdr&#45;&gt;__fprintf_chk</title>
<path fill="none" stroke="#999999" d="M827,-284.41C842.2,-289.03 857.57,-295.36 870.64,-304 908.65,-329.14 938.81,-373.55 955.53,-402.1"/>
<polygon fill="#999999" stroke="#999999" points="952.68,-404.17 960.67,-411.13 958.76,-400.71 952.68,-404.17"/>
</g>
<!-- elftool_parse32_ehdr&#45;&gt;__fprintf_chk -->
<g id="edge53" class="edge">
<title>elftool_parse32_ehdr&#45;&gt;__fprintf_chk</title>
<path fill="none" stroke="#999999" d="M837.47,-228.1C849.36,-232.08 860.86,-237.53 870.64,-245 922.79,-284.83 950.82,-360.15 962.8,-400.99"/>
<polygon fill="#999999" stroke="#999999" points="959.48,-402.14 965.56,-410.82 966.22,-400.24 959.48,-402.14"/>
</g>
<!-- elftool_load&#45;&gt;__fprintf_chk -->
<g id="edge59" class="edge">
<title>elftool_load&#45;&gt;__fprintf_chk</title>
<path fill="none" stroke="#999999" d="M341.59,-137.76C363.48,-143.16 390.36,-149.2 414.77,-153 515.22,-168.64 788.45,-131.17 870.64,-191 939.91,-241.43 961.13,-349.48 967.43,-400.81"/>
<polygon fill="#999999" stroke="#999999" points="963.96,-401.31 968.56,-410.86 970.92,-400.53 963.96,-401.31"/>
</g>
<!-- close -->
<g id="node34" class="node">
<title>close</title>
<ellipse fill="#dbe5f1" stroke="#5b9bd5" cx="507.71" cy="-18" rx="32.49" ry="18"/>
<text text-anchor="middle" x="507.71" y="-14.3" font-family="Verdana" font-size="14.00" fill="#1f4e79">close</text>
</g>
<!-- elftool_load&#45;&gt;close -->
<g id="edge58" class="edge">
<title>elftool_load&#45;&gt;close</title>
<path fill="none" stroke="#999999" d="M317.64,-108.91C340.16,-90.8 378.08,-62.48 414.77,-45 431.19,-37.18 450.35,-31.12 466.92,-26.73"/>
<polygon fill="#999999" stroke="#999999" points="468.02,-30.07 476.85,-24.22 466.3,-23.28 468.02,-30.07"/>
</g>
<!-- mmap -->
<g id="node35" class="node">
<title>mmap</title>
<ellipse fill="#dbe5f1" stroke="#5b9bd5" cx="507.71" cy="-126" rx="37.89" ry="18"/>
<text text-anchor="middle" x="507.71" y="-122.3" font-family="Verdana" font-size="14.00" fill="#1f4e79">mmap</text>
</g>
<!-- elftool_load&#45;&gt;mmap -->
<g id="edge60" class="edge">
<title>elftool_load&#45;&gt;mmap</title>
<path fill="none" stroke="#999999" d="M356.14,-126C388.83,-126 428.95,-126 459.55,-126"/>
<polygon fill="#999999" stroke="#999999" points="459.95,-129.5 469.95,-126 459.95,-122.5 459.95,-129.5"/>
</g>
<!-- fstat -->
<g id="node36" class="node">
<title>fstat</title>
<ellipse fill="#dbe5f1" stroke="#5b9bd5" cx="507.71" cy="-72" rx="29.8" ry="18"/>
<text text-anchor="middle" x="507.71" y="-68.3" font-family="Verdana" font-size="14.00" fill="#1f4e79">fstat</text>
</g>
<!-- elftool_load&#45;&gt;fstat -->
<g id="edge61" class="edge">
<title>elftool_load&#45;&gt;fstat</title>
<path fill="none" stroke="#999999" d="M342.17,-114.42C380.36,-104.57 434.49,-90.62 470.09,-81.44"/>
<polygon fill="#999999" stroke="#999999" points="471.25,-84.76 480.06,-78.87 469.5,-77.98 471.25,-84.76"/>
</g>
<!-- elftool_getopt&#45;&gt;ft_lstpush -->
<g id="edge65" class="edge">
<title>elftool_getopt&#45;&gt;ft_lstpush</title>
<path fill="none" stroke="#999999" d="M823.01,-776.95C840.53,-773 857.98,-765.78 870.64,-753 922.53,-700.59 859.5,-647.73 906.64,-591 910.26,-586.63 914.73,-582.96 919.59,-579.86"/>
<polygon fill="#999999" stroke="#999999" points="921.58,-582.77 928.68,-574.91 918.23,-576.62 921.58,-582.77"/>
</g>
<!-- elftool_getopt&#45;&gt;ft_lstnew -->
<g id="edge66" class="edge">
<title>elftool_getopt&#45;&gt;ft_lstnew</title>
<path fill="none" stroke="#999999" d="M821.42,-775.22C838.93,-771.25 856.77,-764.46 870.64,-753 901,-727.9 883.06,-703.56 906.64,-672 915.54,-660.07 927.54,-649 938.69,-640.03"/>
<polygon fill="#999999" stroke="#999999" points="940.86,-642.78 946.61,-633.89 936.56,-637.25 940.86,-642.78"/>
</g>
<!-- elftool_getopt&#45;&gt;strcmp -->
<g id="edge68" class="edge">
<title>elftool_getopt&#45;&gt;strcmp</title>
<path fill="none" stroke="#999999" d="M816.93,-772.19C850.3,-768.01 890.78,-762.93 921.73,-759.05"/>
<polygon fill="#999999" stroke="#999999" points="922.35,-762.5 931.84,-757.78 921.48,-755.55 922.35,-762.5"/>
</g>
<!-- strlen -->
<g id="node38" class="node">
<title>strlen</title>
<ellipse fill="#dbe5f1" stroke="#5b9bd5" cx="970.98" cy="-807" rx="36.29" ry="18"/>
<text text-anchor="middle" x="970.98" y="-803.3" font-family="Verdana" font-size="14.00" fill="#1f4e79">strlen</text>
</g>
<!-- elftool_getopt&#45;&gt;strlen -->
<g id="edge67" class="edge">
<title>elftool_getopt&#45;&gt;strlen</title>
<path fill="none" stroke="#999999" d="M816.93,-787.81C851.64,-792.16 894.04,-797.48 925.41,-801.41"/>
<polygon fill="#999999" stroke="#999999" points="925.24,-804.92 935.6,-802.69 926.11,-797.97 925.24,-804.92"/>
</g>
</g>
</svg>
